HIERARCHY
ROOT Hips
{
	OFFSET 0.000000 0.000000 0.000000
	CHANNELS 6 Xposition Yposition Zposition Zrotation Yrotation Xrotation 
	JOINT LHipJoint
	{
		OFFSET 0.000000 0.000000 0.000000
		CHANNELS 3 Zrotation Yrotation Xrotation
		JOINT LeftUpLeg
		{
			OFFSET 1.363060 -1.794630 0.839290
			CHANNELS 3 Zrotation Yrotation Xrotation
			JOINT LeftLeg
			{
				OFFSET 2.448110 -6.726130 0.000000
				CHANNELS 3 Zrotation Yrotation Xrotation
				JOINT LeftFoot
				{
					OFFSET 2.562200 -7.039590 0.000000
					CHANNELS 3 Zrotation Yrotation Xrotation
					JOINT LeftToeBase
					{
						OFFSET 0.157640 -0.433110 2.322550
						CHANNELS 3 Zrotation Yrotation Xrotation
						End Site
						{
							OFFSET 0.000000 0.000000 0.000000
						}
					}
				}
			}
		}
	}
	JOINT RHipJoint
	{
		OFFSET 0.000000 0.000000 0.000000
		CHANNELS 3 Zrotation Yrotation Xrotation
		JOINT RightUpLeg
		{
			OFFSET -1.305520 -1.794630 0.839290
			CHANNELS 3 Zrotation Yrotation Xrotation
			JOINT RightLeg
			{
				OFFSET -2.542530 -6.985550 0.000000
				CHANNELS 3 Zrotation Yrotation Xrotation
				JOINT RightFoot
				{
					OFFSET -2.568260 -7.056230 0.000000
					CHANNELS 3 Zrotation Yrotation Xrotation
					JOINT RightToeBase
					{
						OFFSET -0.164730 -0.452590 2.363150
						CHANNELS 3 Zrotation Yrotation Xrotation
						End Site
						{
							OFFSET 0.000000 0.000000 0.000000
						}
					}
				}
			}
		}
	}
	JOINT LowerBack
	{
		OFFSET 0.000000 0.000000 0.000000
		CHANNELS 3 Zrotation Yrotation Xrotation
		JOINT Spine
		{
			OFFSET 0.028270 2.035590 -0.193380
			CHANNELS 3 Zrotation Yrotation Xrotation
			JOINT Spine1
			{
				OFFSET 0.056720 2.048850 -0.042750
				CHANNELS 3 Zrotation Yrotation Xrotation
				JOINT Neck
				{
					OFFSET 0.000000 0.000000 0.000000
					CHANNELS 3 Zrotation Yrotation Xrotation
					JOINT Neck1
					{
						OFFSET -0.054170 1.746240 0.172020
						CHANNELS 3 Zrotation Yrotation Xrotation
						JOINT Head
						{
							OFFSET 0.104070 1.761360 -0.123970
							CHANNELS 3 Zrotation Yrotation Xrotation
							End Site
							{
								OFFSET 0.000000 0.000000 0.000000
							}
						}
					}
				}
				JOINT LeftShoulder
				{
					OFFSET 0.000000 0.000000 0.000000
					CHANNELS 3 Zrotation Yrotation Xrotation
					JOINT LeftArm
					{
						OFFSET 3.362410 1.200890 -0.311210
						CHANNELS 3 Zrotation Yrotation Xrotation
						JOINT LeftForeArm
						{
							OFFSET 4.983000 -0.000000 -0.000000
							CHANNELS 3 Zrotation Yrotation Xrotation
							JOINT LeftHand
							{
								OFFSET 3.483560 -0.000000 -0.000000
								CHANNELS 3 Zrotation Yrotation Xrotation
								JOINT LeftFingerBase
								{
									OFFSET 0.000000 0.000000 0.000000
									CHANNELS 3 Zrotation Yrotation Xrotation
									JOINT LeftHandIndex1
									{
										OFFSET 0.715260 -0.000000 -0.000000
										CHANNELS 3 Zrotation Yrotation Xrotation
										End Site
										{
											OFFSET 0.000000 0.000000 0.000000
										}
									}
								}
								JOINT LThumb
								{
									OFFSET 0.000000 0.000000 0.000000
									CHANNELS 3 Zrotation Yrotation Xrotation
									End Site
									{
										OFFSET 0.000000 0.000000 0.000000
									}
								}
							}
						}
					}
				}
				JOINT RightShoulder
				{
					OFFSET 0.000000 0.000000 0.000000
					CHANNELS 3 Zrotation Yrotation Xrotation
					JOINT RightArm
					{
						OFFSET -3.136600 1.374050 -0.404650
						CHANNELS 3 Zrotation Yrotation Xrotation
						JOINT RightForeArm
						{
							OFFSET -5.241900 -0.000000 -0.000000
							CHANNELS 3 Zrotation Yrotation Xrotation
							JOINT RightHand
							{
								OFFSET -3.444170 -0.000000 -0.000000
								CHANNELS 3 Zrotation Yrotation Xrotation
								JOINT RightFingerBase
								{
									OFFSET 0.000000 0.000000 0.000000
									CHANNELS 3 Zrotation Yrotation Xrotation
									JOINT RightHandIndex1
									{
										OFFSET -0.622530 -0.000000 -0.000000
										CHANNELS 3 Zrotation Yrotation Xrotation
										End Site
										{
											OFFSET 0.000000 0.000000 0.000000
										}
									}
								}
								JOINT RThumb
								{
									OFFSET 0.000000 0.000000 0.000000
									CHANNELS 3 Zrotation Yrotation Xrotation
									End Site
									{
										OFFSET 0.000000 0.000000 0.000000
									}
								}
							}
						}
					}
				}
			}
		}
	}
}
MOTION
Frames: 9
Frame Time: 0.008333
9.681726 17.725063 -11.045702 2.629431 8.991705 6.542011 -2.348301 3.821181 6.093268 -11.938225 7.923047 6.150338 -1.918334 3.951858 16.942309 0.452002 4.949319 25.334498 1.060160 -6.546334 -18.378078 0.632841 1.382722 -4.175378 10.980290 6.750535 -33.755241 0.817496 -12.292952 28.493495 -0.346572 -5.018756 17.477041 -0.866731 5.930376 -16.584349 -4.319015 -5.310161 -3.173499 1.464457 -6.572694 -5.113163 6.224068 -4.405759 7.171636 -9.539748 -3.006823 -17.177006 5.446036 -2.062908 9.810002 5.573998 -1.468596 11.671614 -0.859752 -7.602303 -0.466429 -73.565067 -18.794911 43.417876 21.717890 -30.743169 -8.471165 -0.073302 1.404379 -10.892908 19.837597 -26.084672 -9.397635 -7.125000 0.000000 0.000000 -6.280554 1.100825 6.196376 0.277521 6.600653 0.174834 76.535063 -20.041899 20.302143 -9.139046 17.027836 -2.789368 3.313422 2.270666 -8.654577 -27.540572 -18.355495 11.498666 7.125000 0.000000 0.000000 -2.911201 -52.616795 0.552427
9.668077 17.734270 -10.908335 2.286938 8.852710 6.509423 -2.347166 3.750761 6.004779 -11.516236 8.438968 5.102632 -1.516177 4.686346 18.914856 0.452844 5.231155 26.152306 1.054030 -6.528089 -18.324516 0.667616 1.358357 -4.084077 11.541134 6.704248 -33.639849 0.751288 -12.393984 28.960018 -0.456751 -4.538630 17.280937 -0.768265 5.589377 -15.599532 -3.944581 -5.246269 -3.218652 1.481138 -6.523989 -5.131820 6.142702 -4.348832 7.075933 -9.446291 -2.919173 -17.171840 5.414504 -1.962577 9.791152 5.532092 -1.419453 11.664800 -0.838009 -7.595696 -0.490484 -73.776878 -18.309018 43.521816 21.678946 -30.733073 -8.439374 -0.101009 1.393202 -11.097339 19.924614 -25.955798 -9.410907 -7.125000 0.000000 0.000000 -6.199707 1.223341 6.102033 0.298966 6.626497 0.177287 76.553261 -19.952874 20.037324 -9.050694 16.920977 -2.803166 3.396734 2.354138 -8.294542 -28.122969 -19.280249 12.338515 7.125000 0.000000 0.000000 -3.471278 -53.846149 0.768599
9.655400 17.742829 -10.772171 2.031672 8.711471 6.515592 -2.333802 3.665436 5.900113 -11.214974 8.930874 4.098499 -1.110898 5.400005 20.840477 0.431955 5.527600 26.786691 1.052983 -6.524949 -18.315327 0.694485 1.341422 -3.992909 12.018286 6.621739 -33.529252 0.690270 -12.481409 29.390388 -0.590704 -3.997815 17.093444 -0.675909 5.255428 -14.638920 -3.653059 -5.179339 -3.292971 1.489777 -6.464404 -5.152728 6.044840 -4.287452 6.993833 -9.318323 -2.825474 -17.208474 5.396440 -1.860770 9.767061 5.489287 -1.363155 11.670267 -0.817010 -7.588351 -0.517646 -73.981528 -17.833552 43.631005 21.633753 -30.713325 -8.401100 -0.120570 1.376601 -11.315532 19.880374 -25.780695 -9.337045 -7.125000 0.000000 0.000000 -6.195345 1.425502 6.075222 0.314213 6.654420 0.175616 76.596966 -19.875798 19.834037 -8.988493 16.848754 -2.829639 3.478358 2.456901 -7.984182 -28.714198 -20.329739 13.272025 7.125000 0.000000 0.000000 -4.029430 -55.236382 1.016298
9.642604 17.757313 -10.638910 1.944389 8.622279 6.510217 -2.292772 3.557906 5.751628 -11.142006 9.210938 3.276423 -0.676358 6.110513 22.720594 0.251759 6.199194 27.053770 0.963996 -6.245403 -17.500113 0.714663 1.337149 -3.906762 12.340985 6.415731 -33.374396 0.643090 -12.531720 29.723333 -0.747740 -3.411110 16.916764 -0.596031 4.934332 -13.722974 -3.563831 -5.131750 -3.402567 1.483161 -6.403432 -5.142486 5.913247 -4.242711 7.158787 -9.091517 -2.757989 -17.520447 5.455811 -1.802973 9.616562 5.468762 -1.285542 11.647189 -0.808789 -7.551512 -0.531152 -74.130484 -17.560775 43.507733 21.530334 -30.646172 -8.343988 -0.120338 1.363645 -11.233580 19.718416 -25.662992 -9.216589 -7.125000 0.000000 0.000000 -6.275549 1.590012 6.136082 0.331340 6.671401 0.173087 76.721856 -19.591338 19.718174 -8.972189 16.806929 -2.817880 3.485236 2.409110 -7.601786 -28.661561 -20.211963 13.163058 7.125000 0.000000 0.000000 -3.979019 -55.069031 0.985503
9.628606 17.773538 -10.506638 1.822151 8.542431 6.484252 -2.247332 3.459361 5.600161 -11.031481 9.455454 2.478365 -0.226286 6.812277 24.575740 0.045006 6.969955 27.336275 0.878301 -5.974169 -16.709753 0.737714 1.327790 -3.817895 12.702176 6.221754 -33.201118 0.598974 -12.576352 30.040417 -0.890450 -2.862529 16.719296 -0.521584 4.626385 -12.846270 -3.454124 -5.084106 -3.483105 1.479036 -6.344010 -5.129186 5.805618 -4.199945 7.331287 -8.922656 -2.774551 -17.820311 5.494545 -1.855792 9.582505 5.445828 -1.276624 11.732521 -0.806210 -7.517318 -0.547410 -74.272744 -17.300462 43.391708 21.418480 -30.571376 -8.282426 -0.122687 1.352615 -11.147910 19.592852 -25.555365 -9.119403 -7.125000 0.000000 0.000000 -6.334059 1.734792 6.177684 0.344163 6.682263 0.165402 76.828195 -19.290296 19.657923 -8.968346 16.779286 -2.804694 3.482211 2.348657 -7.266912 -28.538140 -19.963148 12.938882 7.125000 0.000000 0.000000 -3.863107 -54.727993 0.924754
9.609881 17.794644 -10.377295 1.504108 8.481889 6.380597 -2.193838 3.404005 5.451802 -10.694299 9.631212 1.713494 0.275394 7.480454 26.347393 -0.212751 8.006041 27.805061 0.835612 -5.830051 -16.292521 0.774427 1.293961 -3.716536 13.268579 6.117541 -32.969891 0.562292 -12.611116 30.327815 -0.968509 -2.480713 16.435738 -0.464413 4.366182 -12.109919 -3.194310 -5.029650 -3.436426 1.489985 -6.291202 -5.114371 5.804479 -4.159341 7.449538 -9.017177 -3.115371 -17.978366 5.425090 -2.332131 10.053117 5.405756 -1.547296 12.257347 -0.821646 -7.503663 -0.579234 -74.407434 -17.020511 43.383614 21.293020 -30.482425 -8.209641 -0.142010 1.347978 -11.149753 19.651671 -25.468127 -9.130336 -7.125000 0.000000 0.000000 -6.277762 1.814179 6.113069 0.339285 6.672590 0.137573 76.833339 -18.994167 19.788352 -8.998272 16.797516 -2.798878 3.465387 2.289295 -7.144968 -28.353466 -19.592517 12.613133 7.125000 0.000000 0.000000 -3.694853 -54.229047 0.840133
9.592209 17.816309 -10.247363 1.138739 8.431850 6.273198 -2.147113 3.351662 5.307393 -10.311517 9.736583 0.924089 0.789101 8.132405 28.087278 -0.408973 8.980198 28.490022 0.763180 -5.570127 -15.544325 0.815291 1.253869 -3.604167 13.874960 6.043565 -32.694993 0.535888 -12.625735 30.561600 -1.025683 -2.164730 16.145103 -0.412906 4.120780 -11.417160 -2.895616 -4.985153 -3.352366 1.518395 -6.260580 -5.113925 5.866164 -4.126925 7.443926 -9.093436 -3.280809 -18.020875 5.386125 -2.550395 10.275542 5.381468 -1.677632 12.505848 -0.816686 -7.492559 -0.605107 -74.641272 -16.658117 43.402956 21.160040 -30.388737 -8.130352 -0.162867 1.344425 -11.183997 19.724629 -25.354974 -9.140682 -7.125000 0.000000 0.000000 -6.210054 1.916105 6.034943 0.356301 6.684599 0.129299 76.760661 -18.787804 19.951091 -9.048618 16.834251 -2.812948 3.460408 2.289807 -7.105805 -28.253265 -19.628087 12.584063 7.125000 0.000000 0.000000 -3.571313 -54.251664 0.812083
9.575671 17.838574 -10.116797 0.722512 8.393095 6.161777 -2.107661 3.302559 5.167228 -9.879732 9.766314 0.108318 1.315734 8.766918 29.793023 -0.539070 9.887805 29.407289 0.658785 -5.185754 -14.440467 0.860615 1.207048 -3.479964 14.524302 6.002081 -32.373165 0.520529 -12.618705 30.737770 -1.060411 -1.919491 15.846864 -0.367484 3.891285 -10.771246 -2.555138 -4.951357 -3.228134 1.565569 -6.253797 -5.128920 5.995360 -4.103307 7.305209 -9.150072 -3.257778 -17.939213 5.379927 -2.491327 10.231257 5.374140 -1.657160 12.457402 -0.789806 -7.484196 -0.624582 -74.981658 -16.207127 43.451782 21.018977 -30.289958 -8.044076 -0.185374 1.342037 -11.253061 19.812783 -25.213971 -9.150394 -7.125000 0.000000 0.000000 -6.130085 2.042251 5.942295 0.396844 6.719907 0.142039 76.604356 -18.677906 20.148549 -9.120909 16.890872 -2.848388 3.468156 2.354661 -7.155601 -28.243843 -20.100171 12.873811 7.125000 0.000000 0.000000 -3.495822 -54.834766 0.844826
9.563746 17.860938 -9.983435 0.434285 8.369241 6.098884 -2.057277 3.219623 5.005648 -9.630011 9.714046 -0.671298 1.855041 9.395211 31.535720 -0.675414 10.707002 30.012984 0.492474 -4.434861 -12.313687 0.906629 1.173536 -3.352543 15.014981 5.910409 -32.020887 0.528998 -12.567459 30.783577 -1.109769 -1.665952 15.585636 -0.364595 3.878357 -10.734677 -2.334876 -4.923360 -3.169452 1.604124 -6.246443 -5.147821 6.126482 -4.077747 7.175863 -9.226046 -3.259528 -17.842662 5.393982 -2.467471 10.232269 5.387879 -1.656026 12.446432 -0.770571 -7.468275 -0.650120 -75.396502 -15.722762 43.324512 20.842429 -30.163296 -7.946871 -0.187386 1.340591 -11.089275 19.737344 -25.118766 -9.085818 -7.125000 0.000000 0.000000 -6.161749 2.154605 5.960615 0.425524 6.752570 0.151042 76.492262 -18.591910 20.190263 -9.190141 16.943137 -2.880212 3.447694 2.436976 -7.114255 -27.900144 -20.697761 13.064877 7.125000 0.000000 0.000000 -2.976241 -55.513002 0.760216
